<?xml version="1.0" standalone="no"?>
<!DOCTYPE svg PUBLIC "-//W3C//DTD SVG 20010904//EN"
 "http://www.w3.org/TR/2001/REC-SVG-20010904/DTD/svg10.dtd">
<svg version="1.0" xmlns="http://www.w3.org/2000/svg"
 width="256.000000pt" height="256.000000pt" viewBox="0 0 256.000000 256.000000"
 preserveAspectRatio="xMidYMid meet">

<g transform="translate(0.000000,256.000000) scale(0.100000,-0.100000)"
fill="#000000" stroke="none">
<path d="M1075 2434 c-169 -30 -364 -114 -495 -213 -84 -63 -214 -199 -269
-280 -145 -213 -208 -434 -198 -701 11 -302 114 -549 319 -765 185 -194 396
-307 658 -350 143 -24 338 -17 473 19 454 117 794 484 874 941 23 132 13 347
-21 478 -118 455 -481 792 -940 872 -108 18 -293 18 -401 -1z m-181 -119 c-24
-32 -236 -195 -380 -292 -62 -43 -134 -77 -142 -69 -14 14 144 174 248 250 69
51 253 146 283 146 16 0 15 -4 -9 -35z m871 -8 c135 -67 307 -203 379 -297 21
-28 37 -53 34 -55 -24 -24 -538 345 -538 387 0 15 58 -1 125 -35z m-680 -135
l170 -57 3 -196 c2 -192 2 -195 -20 -217 -55 -51 -355 -262 -373 -262 -11 0
-99 26 -195 58 l-175 59 -3 194 c-2 146 1 199 10 211 7 9 91 73 186 142 125
90 181 126 200 125 15 0 104 -26 197 -57z m790 -73 c99 -72 183 -136 187 -143
4 -6 8 -95 8 -198 0 -184 0 -188 -22 -202 -25 -16 -335 -116 -359 -116 -18 0
-370 253 -381 275 -5 8 -7 101 -6 207 l3 193 170 57 c94 32 181 57 195 58 17
0 86 -45 205 -131z m-1019 -711 c14 -15 144 -412 144 -440 0 -17 -195 -293
-224 -317 -11 -9 -57 2 -199 49 l-185 60 -15 38 c-27 69 -127 390 -127 409 0
11 20 46 44 79 24 32 75 102 114 155 l71 97 182 -59 c100 -32 188 -64 195 -71z
m1342 -32 c62 -85 112 -161 112 -168 0 -8 -31 -111 -70 -230 -50 -153 -75
-218 -87 -223 -62 -23 -357 -115 -364 -113 -9 3 -211 274 -228 306 -8 15 6 68
60 238 39 120 74 222 77 226 10 10 343 117 367 117 15 1 50 -39 133 -153z
m-1911 -416 c46 -143 72 -241 72 -270 l0 -45 -28 33 c-85 99 -181 393 -181
550 l0 67 32 -55 c18 -30 65 -156 105 -280z m2114 195 c-13 -113 -50 -242 -96
-338 -40 -85 -91 -167 -103 -167 -19 0 11 130 78 332 69 210 120 324 128 284
2 -10 -1 -60 -7 -111z m-869 -242 c30 -34 207 -279 213 -296 2 -7 -47 -82
-109 -167 l-113 -155 -244 0 -243 0 -104 140 c-57 77 -108 150 -114 162 -9 19
3 39 97 170 59 81 115 154 123 161 12 9 76 12 242 12 l226 0 26 -27z m24 -674
c24 -6 44 -15 44 -19 0 -3 -37 -15 -82 -26 -115 -26 -379 -27 -490 -1 -155 36
-75 54 245 56 146 1 255 -3 283 -10z"/>
</g>
</svg>
